# xmcd
#
# Track frame offsets:
#	150
#	12454
#	26720
#	37826
#	49149
#	59665
#	84409
#	96839
#	107497
#	118611
#	131529
#	143763
#	153526
#	168582
#
# Disc length: 2365 seconds
#
# Revision: 1
# Processed by: cddbd v1.5.2PL0 Copyright (c) Steve Scherf et al.
# Submitted via: audiograbber 1.83.01
#
DISCID=b8093b0e
DTITLE=Sean Walsh - The Winding River Shevin
DYEAR=1900
DGENRE=
TTITLE0=Winding River Shevin
TTITLE1=Sunnyside of the Montain
TTITLE2=Little Old You
TTITLE3=Geisha Girl
TTITLE4=Take Me Back To Tulsa
TTITLE5=Old Bog Road
TTITLE6=Time Changes Everything
TTITLE7=Have I Told You Lately
TTITLE8=Filipino Baby
TTITLE9=Goodnight Irene
TTITLE10=Eskimo Pie
TTITLE11=Alone At The Table For Two
TTITLE12=Be Honest With Me
TTITLE13=My Cross Eyed Girl
EXTD=
EXTT0=
EXTT1=
EXTT2=
EXTT3=
EXTT4=
EXTT5=
EXTT6=
EXTT7=
EXTT8=
EXTT9=
EXTT10=
EXTT11=
EXTT12=
EXTT13=
PLAYORDER=
